<!-- 
  PLACEHOLDER SVG ICONS
  
  Estes SVGs podem ser usados como placeholders para as imagens dos livros
  até terem imagens reais. Adicione-os à pasta assets/icons/ se necessário.
-->

<!-- Book Icon -->
<svg xmlns="http://www.w3.org/2000/svg" viewBox="0 0 24 24" fill="none" stroke="currentColor" stroke-width="2">
  <path d="M4 19.5A2.5 2.5 0 0 1 6.5 17H20"/>
  <path d="M6.5 2H20v20H6.5A2.5 2.5 0 0 1 4 19.5v-15A2.5 2.5 0 0 1 6.5 2z"/>
</svg>

<!-- Newspaper/Blog Icon -->
<svg xmlns="http://www.w3.org/2000/svg" viewBox="0 0 24 24" fill="none" stroke="currentColor" stroke-width="2">
  <path d="M4 22h16a2 2 0 0 0 2-2V4a2 2 0 0 0-2-2H8a2 2 0 0 0-2 2v16a2 2 0 0 1-2 2Zm0 0a2 2 0 0 1-2-2v-9c0-1.1.9-2 2-2h2"/>
  <path d="M18 14h-8"/>
  <path d="M15 18h-5"/>
  <path d="M10 6h8v4h-8V6Z"/>
</svg>

<!-- User Icon -->
<svg xmlns="http://www.w3.org/2000/svg" viewBox="0 0 24 24" fill="none" stroke="currentColor" stroke-width="2">
  <path d="M20 21v-2a4 4 0 0 0-4-4H8a4 4 0 0 0-4 4v2"/>
  <circle cx="12" cy="7" r="4"/>
</svg>

<!-- Shopping Cart Icon -->
<svg xmlns="http://www.w3.org/2000/svg" viewBox="0 0 24 24" fill="none" stroke="currentColor" stroke-width="2">
  <circle cx="9" cy="21" r="1"/>
  <circle cx="20" cy="21" r="1"/>
  <path d="M1 1h4l2.68 13.39a2 2 0 0 0 2 1.61h9.72a2 2 0 0 0 2-1.61L23 6H6"/>
</svg>

<!-- Search Icon -->
<svg xmlns="http://www.w3.org/2000/svg" viewBox="0 0 24 24" fill="none" stroke="currentColor" stroke-width="2">
  <circle cx="11" cy="11" r="8"/>
  <path d="m21 21-4.35-4.35"/>
</svg>

<!-- Heart Icon (Romance Category) -->
<svg xmlns="http://www.w3.org/2000/svg" viewBox="0 0 24 24" fill="none" stroke="currentColor" stroke-width="2">
  <path d="M20.84 4.61a5.5 5.5 0 0 0-7.78 0L12 5.67l-1.06-1.06a5.5 5.5 0 0 0-7.78 7.78l1.06 1.06L12 21.23l7.78-7.78 1.06-1.06a5.5 5.5 0 0 0 0-7.78z"/>
</svg>

<!-- Feather Icon (Poetry Category) -->
<svg xmlns="http://www.w3.org/2000/svg" viewBox="0 0 24 24" fill="none" stroke="currentColor" stroke-width="2">
  <path d="M20.24 12.24a6 6 0 0 0-8.49-8.49L5 10.5V19h8.5z"/>
  <line x1="16" y1="8" x2="2" y2="22"/>
  <line x1="17.5" y1="15" x2="9" y2="15"/>
</svg>

<!-- Landmark Icon (History Category) -->
<svg xmlns="http://www.w3.org/2000/svg" viewBox="0 0 24 24" fill="none" stroke="currentColor" stroke-width="2">
  <line x1="3" y1="22" x2="21" y2="22"/>
  <line x1="6" y1="18" x2="6" y2="11"/>
  <line x1="10" y1="18" x2="10" y2="11"/>
  <line x1="14" y1="18" x2="14" y2="11"/>
  <line x1="18" y1="18" x2="18" y2="11"/>
  <polygon points="12 2 20 7 4 7"/>
</svg>

<!-- Star Icon (Quality Value) -->
<svg xmlns="http://www.w3.org/2000/svg" viewBox="0 0 24 24" fill="none" stroke="currentColor" stroke-width="2">
  <polygon points="12 2 15.09 8.26 22 9.27 17 14.14 18.18 21.02 12 17.77 5.82 21.02 7 14.14 2 9.27 8.91 8.26 12 2"/>
</svg>

<!-- Tag Icon (Promotion) -->
<svg xmlns="http://www.w3.org/2000/svg" viewBox="0 0 24 24" fill="none" stroke="currentColor" stroke-width="2">
  <path d="M20.59 13.41l-7.17 7.17a2 2 0 0 1-2.83 0L2 12V2h10l8.59 8.59a2 2 0 0 1 0 2.82z"/>
  <line x1="7" y1="7" x2="7.01" y2="7"/>
</svg>
